<mxfile host="app.diagrams.net" modified="2021-07-11T13:26:31.553Z" agent="5.0 (Windows NT 10.0; Win64; x64) AppleWebKit/537.36 (KHTML, like Gecko) Chrome/91.0.4472.124 Safari/537.36" etag="ZirUgfx1BX8rHTorPNYw" version="14.8.5" type="github">
  <diagram id="C5RBs43oDa-KdzZeNtuy" name="Page-1">
    <mxGraphModel dx="1021" dy="529" grid="1" gridSize="10" guides="1" tooltips="1" connect="1" arrows="1" fold="1" page="1" pageScale="1" pageWidth="827" pageHeight="1169" math="0" shadow="0">
      <root>
        <mxCell id="WIyWlLk6GJQsqaUBKTNV-0" />
        <mxCell id="WIyWlLk6GJQsqaUBKTNV-1" parent="WIyWlLk6GJQsqaUBKTNV-0" />
        <mxCell id="46j3Y9jfR6cMtCjACX7S-435" style="edgeStyle=orthogonalEdgeStyle;rounded=0;orthogonalLoop=1;jettySize=auto;html=1;exitX=0.5;exitY=1;exitDx=0;exitDy=0;entryX=0.5;entryY=0;entryDx=0;entryDy=0;fontSize=9;" edge="1" parent="WIyWlLk6GJQsqaUBKTNV-1" source="46j3Y9jfR6cMtCjACX7S-0" target="46j3Y9jfR6cMtCjACX7S-1">
          <mxGeometry relative="1" as="geometry" />
        </mxCell>
        <mxCell id="46j3Y9jfR6cMtCjACX7S-0" value="B" style="ellipse;whiteSpace=wrap;html=1;aspect=fixed;fontSize=9;" vertex="1" parent="WIyWlLk6GJQsqaUBKTNV-1">
          <mxGeometry x="140" y="20" width="72" height="25.92" as="geometry" />
        </mxCell>
        <mxCell id="46j3Y9jfR6cMtCjACX7S-436" style="edgeStyle=orthogonalEdgeStyle;rounded=0;orthogonalLoop=1;jettySize=auto;html=1;exitX=0.5;exitY=1;exitDx=0;exitDy=0;fontSize=9;" edge="1" parent="WIyWlLk6GJQsqaUBKTNV-1" source="46j3Y9jfR6cMtCjACX7S-1" target="46j3Y9jfR6cMtCjACX7S-2">
          <mxGeometry relative="1" as="geometry" />
        </mxCell>
        <mxCell id="46j3Y9jfR6cMtCjACX7S-1" value="&lt;font style=&quot;font-size: 8px;&quot;&gt;makine sayısı&lt;br style=&quot;font-size: 8px;&quot;&gt;ay&lt;br style=&quot;font-size: 8px;&quot;&gt;&lt;/font&gt;" style="shape=parallelogram;perimeter=parallelogramPerimeter;whiteSpace=wrap;html=1;fixedSize=1;aspect=fixed;fontSize=8;" vertex="1" parent="WIyWlLk6GJQsqaUBKTNV-1">
          <mxGeometry x="140" y="70" width="72" height="36" as="geometry" />
        </mxCell>
        <mxCell id="46j3Y9jfR6cMtCjACX7S-437" style="edgeStyle=orthogonalEdgeStyle;rounded=0;orthogonalLoop=1;jettySize=auto;html=1;exitX=1;exitY=0.5;exitDx=0;exitDy=0;entryX=0.5;entryY=0;entryDx=0;entryDy=0;fontSize=9;" edge="1" parent="WIyWlLk6GJQsqaUBKTNV-1" source="46j3Y9jfR6cMtCjACX7S-2" target="46j3Y9jfR6cMtCjACX7S-9">
          <mxGeometry relative="1" as="geometry" />
        </mxCell>
        <mxCell id="46j3Y9jfR6cMtCjACX7S-441" style="edgeStyle=orthogonalEdgeStyle;rounded=0;orthogonalLoop=1;jettySize=auto;html=1;entryX=0.5;entryY=0;entryDx=0;entryDy=0;fontSize=9;" edge="1" parent="WIyWlLk6GJQsqaUBKTNV-1" source="46j3Y9jfR6cMtCjACX7S-2" target="46j3Y9jfR6cMtCjACX7S-432">
          <mxGeometry relative="1" as="geometry" />
        </mxCell>
        <mxCell id="46j3Y9jfR6cMtCjACX7S-2" value="ay&amp;gt;2 ve ay&amp;lt;9" style="rhombus;whiteSpace=wrap;html=1;aspect=fixed;fontSize=9;" vertex="1" parent="WIyWlLk6GJQsqaUBKTNV-1">
          <mxGeometry x="140" y="140" width="72" height="72" as="geometry" />
        </mxCell>
        <mxCell id="46j3Y9jfR6cMtCjACX7S-444" style="edgeStyle=orthogonalEdgeStyle;rounded=0;orthogonalLoop=1;jettySize=auto;html=1;entryX=0;entryY=0.5;entryDx=0;entryDy=0;fontSize=9;" edge="1" parent="WIyWlLk6GJQsqaUBKTNV-1" source="46j3Y9jfR6cMtCjACX7S-5" target="46j3Y9jfR6cMtCjACX7S-6">
          <mxGeometry relative="1" as="geometry" />
        </mxCell>
        <mxCell id="46j3Y9jfR6cMtCjACX7S-5" value="i=makinesayısı" style="rounded=1;whiteSpace=wrap;html=1;aspect=fixed;fontSize=9;" vertex="1" parent="WIyWlLk6GJQsqaUBKTNV-1">
          <mxGeometry x="140" y="258" width="72" height="36" as="geometry" />
        </mxCell>
        <mxCell id="46j3Y9jfR6cMtCjACX7S-445" style="edgeStyle=orthogonalEdgeStyle;rounded=0;orthogonalLoop=1;jettySize=auto;html=1;entryX=0;entryY=0.5;entryDx=0;entryDy=0;fontSize=9;" edge="1" parent="WIyWlLk6GJQsqaUBKTNV-1" source="46j3Y9jfR6cMtCjACX7S-6" target="46j3Y9jfR6cMtCjACX7S-8">
          <mxGeometry relative="1" as="geometry" />
        </mxCell>
        <mxCell id="46j3Y9jfR6cMtCjACX7S-450" style="edgeStyle=orthogonalEdgeStyle;rounded=0;orthogonalLoop=1;jettySize=auto;html=1;entryX=0.5;entryY=0;entryDx=0;entryDy=0;fontSize=9;" edge="1" parent="WIyWlLk6GJQsqaUBKTNV-1" source="46j3Y9jfR6cMtCjACX7S-6" target="46j3Y9jfR6cMtCjACX7S-449">
          <mxGeometry relative="1" as="geometry" />
        </mxCell>
        <mxCell id="46j3Y9jfR6cMtCjACX7S-6" value="makSay&amp;gt;0" style="rhombus;whiteSpace=wrap;html=1;aspect=fixed;fontSize=9;" vertex="1" parent="WIyWlLk6GJQsqaUBKTNV-1">
          <mxGeometry x="360" y="245" width="62" height="62" as="geometry" />
        </mxCell>
        <mxCell id="46j3Y9jfR6cMtCjACX7S-446" style="edgeStyle=orthogonalEdgeStyle;rounded=0;orthogonalLoop=1;jettySize=auto;html=1;entryX=0;entryY=0.5;entryDx=0;entryDy=0;fontSize=9;" edge="1" parent="WIyWlLk6GJQsqaUBKTNV-1" source="46j3Y9jfR6cMtCjACX7S-8" target="46j3Y9jfR6cMtCjACX7S-433">
          <mxGeometry relative="1" as="geometry" />
        </mxCell>
        <mxCell id="46j3Y9jfR6cMtCjACX7S-8" value="süre" style="shape=document;whiteSpace=wrap;html=1;boundedLbl=1;aspect=fixed;fontSize=9;" vertex="1" parent="WIyWlLk6GJQsqaUBKTNV-1">
          <mxGeometry x="480" y="249.2" width="80" height="53.6" as="geometry" />
        </mxCell>
        <mxCell id="46j3Y9jfR6cMtCjACX7S-443" style="edgeStyle=orthogonalEdgeStyle;rounded=0;orthogonalLoop=1;jettySize=auto;html=1;entryX=0.5;entryY=0;entryDx=0;entryDy=0;fontSize=9;" edge="1" parent="WIyWlLk6GJQsqaUBKTNV-1" source="46j3Y9jfR6cMtCjACX7S-9" target="46j3Y9jfR6cMtCjACX7S-5">
          <mxGeometry relative="1" as="geometry" />
        </mxCell>
        <mxCell id="46j3Y9jfR6cMtCjACX7S-9" value="süre=540&lt;br&gt;aralık=30" style="whiteSpace=wrap;html=1;aspect=fixed;fontSize=9;" vertex="1" parent="WIyWlLk6GJQsqaUBKTNV-1">
          <mxGeometry x="250" y="200" width="72" height="36" as="geometry" />
        </mxCell>
        <mxCell id="46j3Y9jfR6cMtCjACX7S-442" style="edgeStyle=orthogonalEdgeStyle;rounded=0;orthogonalLoop=1;jettySize=auto;html=1;entryX=0.361;entryY=0;entryDx=0;entryDy=0;entryPerimeter=0;fontSize=9;" edge="1" parent="WIyWlLk6GJQsqaUBKTNV-1" source="46j3Y9jfR6cMtCjACX7S-432" target="46j3Y9jfR6cMtCjACX7S-5">
          <mxGeometry relative="1" as="geometry" />
        </mxCell>
        <mxCell id="46j3Y9jfR6cMtCjACX7S-432" value="süre=480&lt;br&gt;aralık=45" style="rounded=0;whiteSpace=wrap;html=1;fontSize=9;" vertex="1" parent="WIyWlLk6GJQsqaUBKTNV-1">
          <mxGeometry x="20" y="200" width="72" height="36" as="geometry" />
        </mxCell>
        <mxCell id="46j3Y9jfR6cMtCjACX7S-447" style="edgeStyle=orthogonalEdgeStyle;rounded=0;orthogonalLoop=1;jettySize=auto;html=1;entryX=1;entryY=0.5;entryDx=0;entryDy=0;fontSize=9;" edge="1" parent="WIyWlLk6GJQsqaUBKTNV-1" source="46j3Y9jfR6cMtCjACX7S-433" target="46j3Y9jfR6cMtCjACX7S-434">
          <mxGeometry relative="1" as="geometry" />
        </mxCell>
        <mxCell id="46j3Y9jfR6cMtCjACX7S-433" value="süre=süre-aralık" style="rounded=0;whiteSpace=wrap;html=1;fontSize=9;" vertex="1" parent="WIyWlLk6GJQsqaUBKTNV-1">
          <mxGeometry x="620" y="255" width="90" height="42" as="geometry" />
        </mxCell>
        <mxCell id="46j3Y9jfR6cMtCjACX7S-448" style="edgeStyle=orthogonalEdgeStyle;rounded=0;orthogonalLoop=1;jettySize=auto;html=1;fontSize=9;" edge="1" parent="WIyWlLk6GJQsqaUBKTNV-1" source="46j3Y9jfR6cMtCjACX7S-434">
          <mxGeometry relative="1" as="geometry">
            <mxPoint x="440" y="280" as="targetPoint" />
          </mxGeometry>
        </mxCell>
        <mxCell id="46j3Y9jfR6cMtCjACX7S-434" value="i=i-1" style="rounded=0;whiteSpace=wrap;html=1;fontSize=9;" vertex="1" parent="WIyWlLk6GJQsqaUBKTNV-1">
          <mxGeometry x="550" y="360" width="80" height="40" as="geometry" />
        </mxCell>
        <mxCell id="46j3Y9jfR6cMtCjACX7S-449" value="B" style="ellipse;whiteSpace=wrap;html=1;aspect=fixed;fontSize=9;" vertex="1" parent="WIyWlLk6GJQsqaUBKTNV-1">
          <mxGeometry x="375.5" y="350" width="31" height="31" as="geometry" />
        </mxCell>
        <mxCell id="46j3Y9jfR6cMtCjACX7S-451" value="E" style="text;html=1;strokeColor=none;fillColor=none;align=center;verticalAlign=middle;whiteSpace=wrap;rounded=0;fontSize=8;" vertex="1" parent="WIyWlLk6GJQsqaUBKTNV-1">
          <mxGeometry x="70" y="150" width="40" height="20" as="geometry" />
        </mxCell>
        <mxCell id="46j3Y9jfR6cMtCjACX7S-452" value="H" style="text;html=1;strokeColor=none;fillColor=none;align=center;verticalAlign=middle;whiteSpace=wrap;rounded=0;fontSize=8;" vertex="1" parent="WIyWlLk6GJQsqaUBKTNV-1">
          <mxGeometry x="230" y="150" width="40" height="20" as="geometry" />
        </mxCell>
        <mxCell id="46j3Y9jfR6cMtCjACX7S-453" value="E" style="text;html=1;strokeColor=none;fillColor=none;align=center;verticalAlign=middle;whiteSpace=wrap;rounded=0;fontSize=8;" vertex="1" parent="WIyWlLk6GJQsqaUBKTNV-1">
          <mxGeometry x="422" y="245" width="40" height="20" as="geometry" />
        </mxCell>
        <mxCell id="46j3Y9jfR6cMtCjACX7S-454" value="H" style="text;html=1;strokeColor=none;fillColor=none;align=center;verticalAlign=middle;whiteSpace=wrap;rounded=0;fontSize=8;" vertex="1" parent="WIyWlLk6GJQsqaUBKTNV-1">
          <mxGeometry x="340" y="320" width="40" height="20" as="geometry" />
        </mxCell>
      </root>
    </mxGraphModel>
  </diagram>
</mxfile>
